<mxfile host="app.diagrams.net" agent="Mozilla/5.0 (Windows NT 10.0; Win64; x64) AppleWebKit/537.36 (KHTML, like Gecko) Chrome/132.0.0.0 Safari/537.36" version="26.0.11">
  <diagram name="Page-1" id="jfupw31d7gDW7gQ53om4">
    <mxGraphModel dx="548" dy="768" grid="1" gridSize="10" guides="1" tooltips="1" connect="1" arrows="1" fold="1" page="1" pageScale="1" pageWidth="827" pageHeight="1169" math="0" shadow="0">
      <root>
        <mxCell id="0" />
        <mxCell id="1" parent="0" />
        <mxCell id="duYjJp9zFDKCf5gSurAa-1" style="edgeStyle=orthogonalEdgeStyle;rounded=0;orthogonalLoop=1;jettySize=auto;html=1;entryX=0.5;entryY=0;entryDx=0;entryDy=0;" edge="1" parent="1" source="duYjJp9zFDKCf5gSurAa-2" target="duYjJp9zFDKCf5gSurAa-4">
          <mxGeometry relative="1" as="geometry" />
        </mxCell>
        <mxCell id="duYjJp9zFDKCf5gSurAa-2" value="int main()" style="shape=process;whiteSpace=wrap;html=1;backgroundOutline=1;" vertex="1" parent="1">
          <mxGeometry x="260" y="450" width="120" height="60" as="geometry" />
        </mxCell>
        <mxCell id="duYjJp9zFDKCf5gSurAa-3" style="edgeStyle=orthogonalEdgeStyle;rounded=0;orthogonalLoop=1;jettySize=auto;html=1;entryX=0.5;entryY=0;entryDx=0;entryDy=0;" edge="1" parent="1" source="duYjJp9zFDKCf5gSurAa-4" target="duYjJp9zFDKCf5gSurAa-6">
          <mxGeometry relative="1" as="geometry" />
        </mxCell>
        <mxCell id="duYjJp9zFDKCf5gSurAa-4" value="&lt;div&gt;setlocale(LC_ALL, &quot;russian&quot;);&lt;/div&gt;&lt;div&gt;int n;&lt;/div&gt;" style="rounded=0;whiteSpace=wrap;html=1;" vertex="1" parent="1">
          <mxGeometry x="235" y="545" width="170" height="40" as="geometry" />
        </mxCell>
        <mxCell id="duYjJp9zFDKCf5gSurAa-5" style="edgeStyle=orthogonalEdgeStyle;rounded=0;orthogonalLoop=1;jettySize=auto;html=1;entryX=0.5;entryY=0;entryDx=0;entryDy=0;" edge="1" parent="1" source="duYjJp9zFDKCf5gSurAa-6" target="duYjJp9zFDKCf5gSurAa-8">
          <mxGeometry relative="1" as="geometry" />
        </mxCell>
        <mxCell id="duYjJp9zFDKCf5gSurAa-21" style="edgeStyle=orthogonalEdgeStyle;rounded=0;orthogonalLoop=1;jettySize=auto;html=1;entryX=0.5;entryY=0;entryDx=0;entryDy=0;" edge="1" parent="1" source="duYjJp9zFDKCf5gSurAa-6" target="duYjJp9zFDKCf5gSurAa-20">
          <mxGeometry relative="1" as="geometry" />
        </mxCell>
        <mxCell id="duYjJp9zFDKCf5gSurAa-6" value="while (true)" style="rhombus;whiteSpace=wrap;html=1;" vertex="1" parent="1">
          <mxGeometry x="260" y="630" width="120" height="70" as="geometry" />
        </mxCell>
        <mxCell id="duYjJp9zFDKCf5gSurAa-7" style="edgeStyle=orthogonalEdgeStyle;rounded=0;orthogonalLoop=1;jettySize=auto;html=1;entryX=0.5;entryY=0;entryDx=0;entryDy=0;" edge="1" parent="1" source="duYjJp9zFDKCf5gSurAa-8" target="duYjJp9zFDKCf5gSurAa-10">
          <mxGeometry relative="1" as="geometry" />
        </mxCell>
        <mxCell id="duYjJp9zFDKCf5gSurAa-8" value="&lt;div&gt;cout &amp;lt;&amp;lt; &quot;Введите количество дисков: &quot;;&lt;/div&gt;&lt;div&gt;cin &amp;gt;&amp;gt; n;&lt;/div&gt;&lt;div&gt;cout &amp;lt;&amp;lt; endl;&lt;/div&gt;" style="shape=parallelogram;perimeter=parallelogramPerimeter;whiteSpace=wrap;html=1;fixedSize=1;" vertex="1" parent="1">
          <mxGeometry x="185" y="740" width="270" height="60" as="geometry" />
        </mxCell>
        <mxCell id="duYjJp9zFDKCf5gSurAa-9" style="edgeStyle=orthogonalEdgeStyle;rounded=0;orthogonalLoop=1;jettySize=auto;html=1;" edge="1" parent="1" source="duYjJp9zFDKCf5gSurAa-10">
          <mxGeometry relative="1" as="geometry">
            <mxPoint x="320" y="610" as="targetPoint" />
            <Array as="points">
              <mxPoint x="320" y="930" />
              <mxPoint x="90" y="930" />
              <mxPoint x="90" y="610" />
            </Array>
          </mxGeometry>
        </mxCell>
        <mxCell id="duYjJp9zFDKCf5gSurAa-10" value="han(n, 1, 3, 2);" style="rounded=0;whiteSpace=wrap;html=1;" vertex="1" parent="1">
          <mxGeometry x="260" y="840" width="120" height="60" as="geometry" />
        </mxCell>
        <mxCell id="duYjJp9zFDKCf5gSurAa-11" value="&lt;div&gt;#include &amp;lt;iostream&amp;gt;&lt;/div&gt;&lt;div&gt;using namespace std;&lt;/div&gt;&lt;div&gt;&lt;br&gt;&lt;/div&gt;&lt;div&gt;void han(int n, int start, int point, int temp)&lt;/div&gt;" style="text;html=1;align=left;verticalAlign=middle;resizable=0;points=[];autosize=1;strokeColor=none;fillColor=none;" vertex="1" parent="1">
          <mxGeometry x="450" y="490" width="240" height="70" as="geometry" />
        </mxCell>
        <mxCell id="duYjJp9zFDKCf5gSurAa-12" value="" style="endArrow=none;html=1;rounded=0;" edge="1" parent="1">
          <mxGeometry width="50" height="50" relative="1" as="geometry">
            <mxPoint x="450" y="520" as="sourcePoint" />
            <mxPoint x="320" y="520" as="targetPoint" />
          </mxGeometry>
        </mxCell>
        <mxCell id="duYjJp9zFDKCf5gSurAa-13" value="" style="endArrow=none;html=1;rounded=0;exitX=0.001;exitY=0.081;exitDx=0;exitDy=0;exitPerimeter=0;" edge="1" parent="1">
          <mxGeometry width="50" height="50" relative="1" as="geometry">
            <mxPoint x="450.2399999999999" y="493.6700000000001" as="sourcePoint" />
            <mxPoint x="450" y="560" as="targetPoint" />
          </mxGeometry>
        </mxCell>
        <mxCell id="duYjJp9zFDKCf5gSurAa-14" value="" style="endArrow=none;html=1;rounded=0;exitX=0;exitY=0.052;exitDx=0;exitDy=0;exitPerimeter=0;entryX=0.283;entryY=0.048;entryDx=0;entryDy=0;entryPerimeter=0;" edge="1" parent="1" source="duYjJp9zFDKCf5gSurAa-11" target="duYjJp9zFDKCf5gSurAa-11">
          <mxGeometry width="50" height="50" relative="1" as="geometry">
            <mxPoint x="440" y="520" as="sourcePoint" />
            <mxPoint x="490" y="470" as="targetPoint" />
          </mxGeometry>
        </mxCell>
        <mxCell id="duYjJp9zFDKCf5gSurAa-15" value="" style="endArrow=none;html=1;rounded=0;entryX=0.283;entryY=0.048;entryDx=0;entryDy=0;entryPerimeter=0;" edge="1" parent="1">
          <mxGeometry width="50" height="50" relative="1" as="geometry">
            <mxPoint x="450" y="560" as="sourcePoint" />
            <mxPoint x="518" y="560" as="targetPoint" />
          </mxGeometry>
        </mxCell>
        <mxCell id="duYjJp9zFDKCf5gSurAa-16" value="{" style="text;html=1;align=center;verticalAlign=middle;resizable=0;points=[];autosize=1;strokeColor=none;fillColor=none;" vertex="1" parent="1">
          <mxGeometry x="285" y="515" width="30" height="30" as="geometry" />
        </mxCell>
        <mxCell id="duYjJp9zFDKCf5gSurAa-17" value="}" style="text;html=1;align=center;verticalAlign=middle;resizable=0;points=[];autosize=1;strokeColor=none;fillColor=none;" vertex="1" parent="1">
          <mxGeometry x="315" y="908" width="30" height="30" as="geometry" />
        </mxCell>
        <mxCell id="duYjJp9zFDKCf5gSurAa-18" value="1" style="text;html=1;align=center;verticalAlign=middle;resizable=0;points=[];autosize=1;strokeColor=none;fillColor=none;" vertex="1" parent="1">
          <mxGeometry x="320" y="700" width="30" height="30" as="geometry" />
        </mxCell>
        <mxCell id="duYjJp9zFDKCf5gSurAa-19" value="{" style="text;html=1;align=center;verticalAlign=middle;resizable=0;points=[];autosize=1;strokeColor=none;fillColor=none;" vertex="1" parent="1">
          <mxGeometry x="285" y="700" width="30" height="30" as="geometry" />
        </mxCell>
        <mxCell id="duYjJp9zFDKCf5gSurAa-20" value="return 0;" style="ellipse;whiteSpace=wrap;html=1;" vertex="1" parent="1">
          <mxGeometry x="500" y="750" width="80" height="40" as="geometry" />
        </mxCell>
        <mxCell id="duYjJp9zFDKCf5gSurAa-22" value="0" style="text;html=1;align=center;verticalAlign=middle;resizable=0;points=[];autosize=1;strokeColor=none;fillColor=none;" vertex="1" parent="1">
          <mxGeometry x="380" y="630" width="30" height="30" as="geometry" />
        </mxCell>
        <mxCell id="duYjJp9zFDKCf5gSurAa-23" value="}" style="text;html=1;align=center;verticalAlign=middle;resizable=0;points=[];autosize=1;strokeColor=none;fillColor=none;" vertex="1" parent="1">
          <mxGeometry x="535" y="658" width="30" height="30" as="geometry" />
        </mxCell>
      </root>
    </mxGraphModel>
  </diagram>
</mxfile>
